<svg version="1.1" xmlns="http://www.w3.org/2000/svg" viewBox="0 0 502 469" width="32" height="32">

<path d="M0 0 C0.66 0 1.32 0 2 0 C8.09508275 6.83510384 11.99238601 14.42146463 15 23 C15.3196875 23.83660156 15.639375 24.67320312 15.96875 25.53515625 C22.08112983 43.84399768 17.62426157 65.7856969 9.28686523 82.63378906 C8.53894327 84.09662744 7.77180212 85.54961905 7 87 C6.34 87 5.68 87 5 87 C4.73960937 87.72058594 4.47921875 88.44117188 4.2109375 89.18359375 C-4.58990012 109.65263866 -25.7402259 122.07212362 -45 131 C-45.68392822 131.33491455 -46.36785645 131.6698291 -47.07250977 132.01489258 C-52.45954619 134.56906413 -57.48030535 135.95089942 -63.375 136.75 C-64.23641602 136.87068848 -65.09783203 136.99137695 -65.98535156 137.11572266 C-79.79940468 138.89598798 -98.10691916 140.44654042 -111 134 C-111 133.34 -111 132.68 -111 132 C-109.8140625 131.89042969 -108.628125 131.78085937 -107.40625 131.66796875 C-92.9491628 130.27543759 -78.96923789 128.10085948 -65 124 C-64.23042969 123.81050781 -63.46085937 123.62101562 -62.66796875 123.42578125 C-38.79231452 117.2094003 -16.51489738 100.12864221 -4 79 C-2.42854294 75.40020859 -1.19748296 71.73793746 0 68 C0.53204192 66.53812781 1.07277722 65.0793689 1.625 63.625 C2.07875 62.42875 2.5325 61.2325 3 60 C3.556875 58.700625 3.556875 58.700625 4.125 57.375 C10.21808845 40.83661705 6.27994353 18.84938128 0 3 C0 2.01 0 1.02 0 0 Z " fill="#E9843B" transform="translate(335,214)"/>
<path d="M0 0 C1.19818359 -0.020625 2.39636719 -0.04125 3.63085938 -0.0625 C10.39023923 -0.09229341 15.55058219 0.35306985 21.6875 3.25 C21.6875 3.58 21.6875 3.91 21.6875 4.25 C20.10775391 4.41435547 20.10775391 4.41435547 18.49609375 4.58203125 C-0.45863905 6.63178981 -18.31076331 11.09172554 -36.328125 17.296875 C-39.3125 18.25 -39.3125 18.25 -41.3125 18.25 C-41.3125 18.91 -41.3125 19.57 -41.3125 20.25 C-42.529375 20.724375 -43.74625 21.19875 -45 21.6875 C-65.90256362 31.00313072 -81.01448127 48.75412699 -90.3125 69.25 C-97.05930484 87.92084534 -96.91609551 111.64424914 -90.3125 130.25 C-89.61790236 132.57625788 -88.96473829 134.9113438 -88.3125 137.25 C-89.3025 137.25 -90.2925 137.25 -91.3125 137.25 C-102.78774079 125.68954703 -107.72515752 106.52752275 -107.68041992 90.75366211 C-107.20514123 67.32985608 -95.51457603 48.22083468 -80.3125 31.25 C-79.32636719 30.13625 -79.32636719 30.13625 -78.3203125 29 C-67.21521229 17.17997917 -48.12449302 3.73660138 -31.4296875 3.1484375 C-29.57068473 3.1732242 -27.71155952 3.23291976 -25.85546875 3.33984375 C-22.93138657 3.23653516 -20.98868422 2.3969361 -18.3125 1.25 C-12.27462771 -0.22121265 -6.17909045 0.02633603 0 0 Z " fill="#E87E33" transform="translate(271.3125,127.75)"/>
<path d="M0 0 C0.33 0 0.66 0 1 0 C2.29048525 4.97758596 3.10423113 9.77742252 3.55078125 14.9050293 C4.29229213 23.16796856 5.78593157 31.03110619 7.875 39.0625 C8.11959961 40.01334473 8.36419922 40.96418945 8.61621094 41.94384766 C12.75972952 57.27594406 20.59472892 72.97554133 31 85 C31.7425 85.99 32.485 86.98 33.25 88 C40.70451357 96.73311946 50.7598631 103.04103885 61 108 C61.61568848 108.30631348 62.23137695 108.61262695 62.86572266 108.92822266 C73.44001228 113.94823037 83.97928678 114.53276001 95.5 114.5 C96.53806793 114.49794556 96.53806793 114.49794556 97.59710693 114.49584961 C104.85420126 114.44851465 111.88725013 114.1482908 118.96679688 112.41992188 C121 112 121 112 125 112 C125 112.66 125 113.32 125 114 C109.04169504 123.80795093 96.67519864 125.58314438 78 125 C76.77796875 124.9690625 75.5559375 124.938125 74.296875 124.90625 C58.80336471 124.09507145 44.61460657 115.86354947 33 106 C31.98679687 105.18595703 31.98679687 105.18595703 30.953125 104.35546875 C15.9128651 91.9093622 5.96452786 73.94906406 0.8125 55.375 C0.55275391 54.47265625 0.29300781 53.5703125 0.02539062 52.640625 C-2.46738629 43.80318334 -3.19392241 35.53263627 -3.1875 26.375 C-3.18741943 25.3120874 -3.18733887 24.2491748 -3.18725586 23.15405273 C-3.04134465 3.04134465 -3.04134465 3.04134465 0 0 Z " fill="#E97F35" transform="translate(150,208)"/>
<path d="M0 0 C0.99128906 0.04511719 1.98257813 0.09023437 3.00390625 0.13671875 C25.60696833 2.35949752 47.13921703 17.94661267 61.4140625 34.90234375 C64.57140634 39.07843646 67.31942176 43.50737586 70 48 C70.66386719 49.09441406 71.32773437 50.18882812 72.01171875 51.31640625 C80.91485469 67.04051033 82.11213832 84.7993141 82.25 102.4375 C82.25950684 103.43217285 82.26901367 104.4268457 82.27880859 105.45166016 C82.25058495 111.70162994 81.98641226 118.01978 80 124 C79.01 124.495 79.01 124.495 78 125 C77.91435791 124.21761963 77.82871582 123.43523926 77.74047852 122.62915039 C77.35232556 119.10641985 76.9575043 115.58446859 76.5625 112.0625 C76.42779297 110.83080078 76.29308594 109.59910156 76.15429688 108.33007812 C76.02216797 107.16025391 75.89003906 105.99042969 75.75390625 104.78515625 C75.63345947 103.70113525 75.5130127 102.61711426 75.38891602 101.50024414 C75.26197197 99.06529863 75.26197197 99.06529863 74 98 C73.77079779 96.39868185 73.56817673 94.79356233 73.375 93.1875 C72.26826294 86.03694105 69.87043789 79.45841118 67.38818359 72.68041992 C67.08219238 71.84486572 66.77620117 71.00931152 66.4609375 70.1484375 C66.04013916 69.02187744 66.04013916 69.02187744 65.61083984 67.87255859 C65 66 65 66 65 64 C64.34 64 63.68 64 63 64 C62.79246094 63.46632812 62.58492188 62.93265625 62.37109375 62.3828125 C53.66245657 41.32175689 35.54233316 25.95058802 15 17 C4.80977443 13.11528718 -5.42809887 11.80369096 -16.25 11.8125 C-17.49571777 11.8115332 -17.49571777 11.8115332 -18.76660156 11.81054688 C-24.49064629 11.85945133 -29.90876737 12.43334967 -35.53125 13.5546875 C-38.7547796 14.13614695 -41.73585945 14.14837003 -45 14 C-45 13.34 -45 12.68 -45 12 C-31.45871295 1.66979021 -16.79689743 -0.87547465 0 0 Z " fill="#E77E33" transform="translate(288,145)"/>
<path d="M0 0 C-1.21236328 0.27263672 -1.21236328 0.27263672 -2.44921875 0.55078125 C-3.51785156 0.80214844 -4.58648437 1.05351562 -5.6875 1.3125 C-7.27111328 1.67794922 -7.27111328 1.67794922 -8.88671875 2.05078125 C-12.00232777 3.00070972 -14.36239168 4.09641997 -17 6 C-17 6.66 -17 7.32 -17 8 C-16.23969482 7.98952637 -15.47938965 7.97905273 -14.69604492 7.96826172 C-11.19323134 7.92624179 -7.69047108 7.9005292 -4.1875 7.875 C-2.3940918 7.84986328 -2.3940918 7.84986328 -0.56445312 7.82421875 C6.85799643 7.78376943 13.75678331 8.35537355 21 10 C17.51275901 11.03722819 14.81883791 10.7883105 11.21679688 10.27099609 C7.4004698 9.80446272 3.59050735 9.80937382 -0.25 9.8125 C-1.49571777 9.8115332 -1.49571777 9.8115332 -2.76660156 9.81054688 C-8.49064629 9.85945133 -13.90876737 10.43334967 -19.53125 11.5546875 C-22.7547796 12.13614695 -25.73585945 12.14837003 -29 12 C-29 11.34 -29 10.68 -29 10 C-21.10703694 3.97871384 -10.24510225 -2.88964422 0 0 Z " fill="#EDA772" transform="translate(272,147)"/>
<path d="M0 0 C1.02503357 3.34293366 1.0624329 6.28519059 0.95703125 9.76953125 C0.68408366 22.61089102 0.68288102 33.83643848 5 46 C5.69459764 48.32625788 6.34776171 50.6613438 7 53 C4 53 4 53 2.359375 51.390625 C1.82828125 50.68421875 1.2971875 49.9778125 0.75 49.25 C0.20859375 48.55390625 -0.3328125 47.8578125 -0.890625 47.140625 C-2 45 -2 45 -1.7109375 42.93359375 C-1.47632813 42.29550781 -1.24171875 41.65742188 -1 41 C-0.60986284 39.0103005 -0.26797351 37.00980131 0 35 C-0.33 34.67 -0.66 34.34 -1 34 C-1.10025914 31.74398021 -1.1308138 29.4848081 -1.1328125 27.2265625 C-1.13376923 26.54701508 -1.13472595 25.86746765 -1.13571167 25.16732788 C-1.13639348 23.72645984 -1.13453914 22.28558874 -1.13037109 20.84472656 C-1.12503921 18.64120541 -1.13030745 16.43788963 -1.13671875 14.234375 C-1.13605764 12.83593705 -1.13477581 11.43749923 -1.1328125 10.0390625 C-1.13168457 8.76240723 -1.13055664 7.48575195 -1.12939453 6.17041016 C-1 3 -1 3 0 0 Z " fill="#EA9B66" transform="translate(176,212)"/>
<path d="M0 0 C0.66 0 1.32 0 2 0 C7.88113863 6.59518416 12.67092985 14.43462181 15 23 C14.62109375 25.34765625 14.62109375 25.34765625 14 27 C13.49384702 25.73160474 12.99530901 24.46016898 12.5 23.1875 C12.2215625 22.47980469 11.943125 21.77210938 11.65625 21.04296875 C11 19 11 19 11 16 C9.35 15.67 7.7 15.34 6 15 C5.67 15.99 5.34 16.98 5 18 C4.35334337 15.75023648 3.70770477 13.50018033 3.0625 11.25 C2.70285156 9.99703125 2.34320313 8.7440625 1.97265625 7.453125 C1.27445851 4.97438281 0.60056274 2.50339838 0 0 Z " fill="#E99052" transform="translate(335,214)"/>
<path d="M0 0 C2.375 0.1875 2.375 0.1875 5 1 C6.375 3.375 6.375 3.375 7 6 C6 9 6 9 4 10 C3.34227572 13.02934491 3.34227572 13.02934491 3 16 C0.2656934 13.2656934 0.04659335 11.23006445 -0.09765625 7.421875 C-0.08025391 6.09929687 -0.08025391 6.09929687 -0.0625 4.75 C-0.05347656 3.85796875 -0.04445313 2.9659375 -0.03515625 2.046875 C-0.02355469 1.37140625 -0.01195312 0.6959375 0 0 Z " fill="#E5742A" transform="translate(341,229)"/>
<path d="M0 0 C0.66 0.33 1.32 0.66 2 1 C-0.6622109 4.21031315 -3.33977846 7.40331165 -6.0625 10.5625 C-8.43917949 13.3260808 -10.74390007 16.13648855 -13 19 C-14.32 18.67 -15.64 18.34 -17 18 C-14.73005136 15.56167482 -12.45888681 13.12448546 -10.1875 10.6875 C-9.54490234 9.99720703 -8.90230469 9.30691406 -8.24023438 8.59570312 C-7.61826172 7.92861328 -6.99628906 7.26152344 -6.35546875 6.57421875 C-5.49924927 5.65515747 -5.49924927 5.65515747 -4.62573242 4.7175293 C-3.11021909 3.11644261 -1.56708191 1.55047707 0 0 Z " fill="#E9853F" transform="translate(199,151)"/>
<path d="M0 0 C0 0.66 0 1.32 0 2 C-1.98 2.99 -3.96 3.98 -6 5 C-6 4.34 -6 3.68 -6 3 C-7.01259888 3.24447876 -7.01259888 3.24447876 -8.0456543 3.49389648 C-11.50333581 4.08622553 -14.76098849 4.1120947 -18.26953125 4.09765625 C-18.95053391 4.0962413 -19.63153656 4.09482635 -20.33317566 4.09336853 C-22.49299647 4.08780298 -24.65271089 4.07525703 -26.8125 4.0625 C-28.28320162 4.05748054 -29.75390488 4.05291841 -31.22460938 4.04882812 C-34.8164404 4.03784488 -38.4082098 4.02060422 -42 4 C-42 3.67 -42 3.34 -42 3 C-41.20416504 2.98018066 -40.40833008 2.96036133 -39.58837891 2.93994141 C-35.93362362 2.84386142 -32.2793762 2.73452176 -28.625 2.625 C-27.37332031 2.5940625 -26.12164062 2.563125 -24.83203125 2.53125 C-18.40691146 2.32941378 -12.32456778 1.91844879 -6.06396484 0.41552734 C-4 0 -4 0 0 0 Z " fill="#EEA573" transform="translate(275,320)"/>
<path d="M0 0 C1.32 0 2.64 0 4 0 C4 0.99 4 1.98 4 3 C2.081875 3.18175781 2.081875 3.18175781 0.125 3.3671875 C-1.58336419 3.5361466 -3.29169584 3.70543499 -5 3.875 C-5.83917969 3.95363281 -6.67835938 4.03226563 -7.54296875 4.11328125 C-11.56829838 4.51893462 -15.42702591 5.03211997 -19.34375 6.0625 C-23.50628941 7.1298178 -26.74593509 7.15193089 -31 7 C-27.43306329 4.62204219 -24.13956147 4.11955873 -20 3.4375 C-18.86510132 3.24353638 -18.86510132 3.24353638 -17.70727539 3.0456543 C-11.82675711 2.06879703 -5.95150577 1.3727725 0 1 C0 0.67 0 0.34 0 0 Z " fill="#F1C099" transform="translate(292,130)"/>
<path d="M0 0 C1.26376341 3.79129022 0.63656809 4.41513656 -1 8 C-1.30421875 8.75539062 -1.6084375 9.51078125 -1.921875 10.2890625 C-2.25703125 11.10117188 -2.5921875 11.91328125 -2.9375 12.75 C-3.25589844 13.52859375 -3.57429687 14.3071875 -3.90234375 15.109375 C-5 17 -5 17 -8 18 C-6.70949166 11.03125494 -3.85189664 5.91108667 0 0 Z " fill="#EA8B4A" transform="translate(178,175)"/>
<path d="M0 0 C0.95648438 0.00902344 1.91296875 0.01804687 2.8984375 0.02734375 C5.22423525 0.05060173 7.54947294 0.08327787 9.875 0.125 C9.875 0.455 9.875 0.785 9.875 1.125 C8.68003906 1.17398438 7.48507812 1.22296875 6.25390625 1.2734375 C-6.79040912 1.46914487 -6.79040912 1.46914487 -19.125 5.125 C-21.13300456 4.84387936 -23.13514051 4.51432033 -25.125 4.125 C-17.32893696 -0.10258329 -8.67067355 -0.15831286 0 0 Z " fill="#F1C097" transform="translate(266.125,126.875)"/>
<path d="M0 0 C0.33 0 0.66 0 1 0 C1.33 5.61 1.66 11.22 2 17 C1.01 17.33 0.02 17.66 -1 18 C-1.02684312 15.18743719 -1.04676188 12.37512759 -1.0625 9.5625 C-1.07087891 8.76005859 -1.07925781 7.95761719 -1.08789062 7.13085938 C-1.0965143 5.08704779 -1.0522815 3.04316098 -1 1 C-0.67 0.67 -0.34 0.34 0 0 Z " fill="#E36D21" transform="translate(150,212)"/>
<path d="M0 0 C0.66 0.33 1.32 0.66 2 1 C-2.62 5.62 -7.24 10.24 -12 15 C-12.66 14.67 -13.32 14.34 -14 14 C-10.12814498 9.03918575 -5.79125711 5.06361292 -1 1 C-0.67 0.67 -0.34 0.34 0 0 Z " fill="#F5E7DB" transform="translate(209,159)"/>
<path d="M0 0 C0 3.49889647 -0.54120332 4.0553603 -2.75 6.625 C-3.26046875 7.23601562 -3.7709375 7.84703125 -4.296875 8.4765625 C-6.19607419 10.17538747 -7.51275949 10.5998787 -10 11 C-7.58662205 6.17324411 -4.13937592 3.30015998 0 0 Z " fill="#EC8942" transform="translate(315,313)"/>
<path d="M0 0 C-0.33 0.33 -0.66 0.66 -1 1 C0.65 1.33 2.3 1.66 4 2 C0.3558226 4.4294516 -1.71241272 4.16179575 -6 4 C-6.33 3.01 -6.66 2.02 -7 1 C-3.375 -1.125 -3.375 -1.125 0 0 Z " fill="#E6701A" transform="translate(261,151)"/>
<path d="M0 0 C0.66 0 1.32 0 2 0 C3.7143618 1.95927063 5.38405168 3.95880212 7 6 C5.93453047 8.13093906 4.70840281 9.36587557 3 11 C2.49384702 9.73160474 1.99530901 8.46016898 1.5 7.1875 C1.2215625 6.47980469 0.943125 5.77210938 0.65625 5.04296875 C0 3 0 3 0 0 Z " fill="#E79156" transform="translate(335,214)"/>
<path d="M0 0 C0.66 0.33 1.32 0.66 2 1 C1.67 1.33 1.34 1.66 1 2 C2.65 2.33 4.3 2.66 6 3 C2.3558226 5.4294516 0.28758728 5.16179575 -4 5 C-4 4.34 -4 3.68 -4 3 C-2 1.375 -2 1.375 0 0 Z " fill="#EAA874" transform="translate(247,154)"/>
<path d="M0 0 C0.33 1.32 0.66 2.64 1 4 C-0.4375 6.25 -0.4375 6.25 -2 8 C-3.32 7.67 -4.64 7.34 -6 7 C-4.02 4.69 -2.04 2.38 0 0 Z " fill="#EA8C4B" transform="translate(188,162)"/>
<path d="M0 0 C1.48206495 0.254496 2.96068615 0.52911762 4.4375 0.8125 C5.67306641 1.03873047 5.67306641 1.03873047 6.93359375 1.26953125 C7.95646484 1.63111328 7.95646484 1.63111328 9 2 C9.33 2.99 9.66 3.98 10 5 C8.51793505 4.745504 7.03931385 4.47088238 5.5625 4.1875 C4.73878906 4.03667969 3.91507812 3.88585937 3.06640625 3.73046875 C2.38449219 3.48941406 1.70257813 3.24835938 1 3 C0.67 2.01 0.34 1.02 0 0 Z " fill="#E8853A" transform="translate(292,156)"/>
<path d="M0 0 C2.6855594 2.6855594 3.06049974 5.37621328 4 9 C3.01 9 2.02 9 1 9 C-0.61949011 6.42786866 -1.04408751 5.32330841 -0.625 2.25 C-0.41875 1.5075 -0.2125 0.765 0 0 Z " fill="#EBA36F" transform="translate(179,256)"/>
<path d="M0 0 C2.475 0.495 2.475 0.495 5 1 C5 1.99 5 2.98 5 4 C4.01 4.495 4.01 4.495 3 5 C1.86649466 7.01669827 1.86649466 7.01669827 1 9 C1.020625 8.071875 1.04125 7.14375 1.0625 6.1875 C1.15769604 2.97713989 1.15769604 2.97713989 0 0 Z " fill="#E66B1C" transform="translate(341,229)"/>
<path d="M0 0 C1.125 1.75 1.125 1.75 2 4 C1.07451225 6.69933926 0.57626463 7.71186768 -2 9 C-1.125 1.125 -1.125 1.125 0 0 Z " fill="#E98A45" transform="translate(340,269)"/>
<path d="M0 0 C0 0.99 0 1.98 0 3 C-2.875 3.125 -2.875 3.125 -6 3 C-6.66 2.34 -7.32 1.68 -8 1 C-5.07175348 0.02391783 -3.04386724 -0.08226668 0 0 Z " fill="#EA7121" transform="translate(269,323)"/>
<path d="M0 0 C5.53846154 0.61538462 5.53846154 0.61538462 7.875 2.5625 C8.431875 3.2740625 8.431875 3.2740625 9 4 C8.01 4.495 8.01 4.495 7 5 C4.5249829 3.88568235 2.32116581 2.41849022 0 1 C0 0.67 0 0.34 0 0 Z " fill="#EA9252" transform="translate(194,321)"/>
<path d="M0 0 C5.445 1.485 5.445 1.485 11 3 C9.02 3.99 9.02 3.99 7 5 C6.01 4.67 5.02 4.34 4 4 C4 3.34 4 2.68 4 2 C2.68 1.67 1.36 1.34 0 1 C0 0.67 0 0.34 0 0 Z " fill="#EB853C" transform="translate(218,319)"/>
<path d="M0 0 C-5.41538462 4.06153846 -5.41538462 4.06153846 -8.375 3.75 C-8.91125 3.5025 -9.4475 3.255 -10 3 C-3.94594595 -1.97297297 -3.94594595 -1.97297297 0 0 Z " fill="#E98743" transform="translate(216,143)"/>
<path d="M0 0 C0.99 0.99 1.98 1.98 3 3 C2.34 4.32 1.68 5.64 1 7 C0.34 6.67 -0.32 6.34 -1 6 C-1.042721 4.33388095 -1.04063832 2.66617115 -1 1 C-0.67 0.67 -0.34 0.34 0 0 Z " fill="#E66F21" transform="translate(340,221)"/>
</svg>
